<?xml version="1.0" standalone="no"?>
<!DOCTYPE svg PUBLIC "-//W3C//DTD SVG 20010904//EN"
 "http://www.w3.org/TR/2001/REC-SVG-20010904/DTD/svg10.dtd">
<svg version="1.0" xmlns="http://www.w3.org/2000/svg"
 width="800.000000pt" height="800.000000pt" viewBox="0 0 800.000000 800.000000"
 preserveAspectRatio="xMidYMid meet">
<metadata>
Created by potrace 1.14, written by Peter Selinger 2001-2017
</metadata>
<g transform="translate(0.000000,800.000000) scale(0.100000,-0.100000)"
fill="#000000" stroke="none">
<path d="M0 4095 c1 -3687 2 -3905 18 -3905 16 -1 16 -1 0 -11 -15 -8 -18 -25
-18 -94 l0 -85 1200 0 c1062 0 1200 2 1200 15 0 8 -4 15 -10 15 -5 0 -10 4
-10 10 0 5 7 7 15 4 18 -7 19 9 4 39 -9 16 -9 22 0 25 6 2 11 8 11 13 0 6 -5
7 -11 3 -8 -4 -9 1 -4 16 5 17 4 21 -6 15 -8 -4 -3 2 10 15 22 22 23 24 6 36
-24 18 -12 72 18 79 12 3 74 16 137 29 135 28 131 32 -10 10 -131 -21 -262
-16 -287 10 -17 17 -17 18 4 11 17 -4 23 -2 23 9 0 25 -12 46 -25 46 -17 0
-24 30 -11 51 7 12 5 22 -7 34 -24 23 -22 78 4 101 19 17 19 19 3 31 -11 8
-14 18 -10 30 7 17 8 17 21 0 28 -38 25 5 -6 69 -29 63 -30 69 -14 80 13 9 23
10 36 3 11 -5 19 -7 19 -3 0 3 6 1 14 -5 7 -6 21 -9 29 -5 13 5 10 16 -20 72
-19 37 -41 74 -48 82 -8 8 -17 29 -21 45 -4 17 -25 62 -47 100 -45 77 -90 165
-124 241 -27 57 -73 198 -73 220 0 8 -9 42 -21 76 -48 142 -96 458 -70 458 6
0 11 -11 11 -25 0 -14 4 -25 8 -25 5 0 8 -14 7 -32 -1 -19 5 -38 16 -49 11
-11 16 -25 12 -34 -3 -9 4 -29 16 -45 11 -16 21 -41 21 -55 0 -14 5 -25 10
-25 6 0 10 -5 10 -10 0 -6 11 -28 25 -50 14 -22 22 -40 19 -40 -4 0 0 -8 8
-17 30 -36 97 -151 91 -157 -4 -3 1 -6 11 -6 21 0 15 30 -15 72 -10 15 -19 31
-19 36 0 5 -14 37 -31 73 -51 105 -116 289 -127 364 -29 181 -40 369 -22 380
13 8 13 102 0 110 -5 3 -10 4 -10 1 0 -2 -7 -40 -15 -83 -8 -43 -15 -90 -15
-105 0 -16 -4 -28 -9 -28 -17 0 13 270 34 311 8 15 15 35 15 43 0 8 30 59 66
113 104 155 104 154 114 326 17 278 19 331 26 512 4 115 11 183 18 188 8 5 8
9 -1 15 -24 15 19 30 47 15 19 -10 21 -13 7 -13 -10 0 -15 -5 -12 -10 11 -17
-5 -71 -18 -64 -8 5 -8 2 1 -7 6 -7 12 -24 11 -39 0 -24 -1 -24 -9 -4 -12 31
-28 38 -27 11 0 -12 -3 -80 -6 -152 -6 -110 -5 -125 5 -98 7 17 17 35 22 40 5
4 6 3 3 -3 -4 -7 4 -15 20 -19 21 -5 24 -8 12 -15 -7 -5 -14 -20 -14 -34 -1
-14 3 -22 7 -20 4 3 8 -4 8 -14 0 -11 7 -22 15 -26 8 -3 12 -12 9 -20 -4 -11
-11 -13 -22 -7 -14 7 -17 4 -19 -20 -3 -33 4 -36 23 -11 12 15 13 10 12 -36
-2 -37 2 -56 12 -62 10 -6 11 -12 3 -22 -6 -7 -8 -33 -4 -62 l6 -49 46 39
c110 94 126 106 157 120 18 8 35 21 38 29 8 21 93 68 110 61 8 -3 18 -16 23
-28 9 -23 9 -23 16 5 5 19 12 26 22 23 8 -3 17 -6 19 -6 3 0 2 -5 -2 -12 -5
-7 -3 -8 5 -3 7 4 11 16 8 26 -6 22 12 39 33 30 20 -8 17 -42 -10 -92 -7 -13
-4 -18 10 -22 11 -3 21 1 24 9 3 8 10 14 16 14 6 0 9 -4 5 -9 -3 -5 -1 -13 5
-16 17 -10 -8 -35 -27 -28 -11 4 -14 2 -9 -5 4 -7 13 -12 21 -12 14 0 14 -14
0 -63 -5 -17 -4 -19 4 -7 8 11 11 12 11 2 0 -8 6 -12 13 -9 6 2 11 10 9 17 -2
7 5 21 14 31 9 11 13 19 8 20 -5 0 0 4 11 8 11 5 24 6 29 3 5 -3 1 -9 -10 -13
-16 -6 -15 -8 9 -8 20 -1 27 -6 27 -21 0 -11 4 -20 10 -20 8 0 8 23 1 73 0 4
-10 7 -21 7 -11 0 -20 6 -20 14 0 7 -10 26 -21 41 l-22 27 24 -3 c13 -2 34 2
46 9 34 19 87 9 91 -17 2 -11 10 -21 18 -21 8 0 13 -4 9 -9 -3 -5 0 -13 6 -16
5 -4 8 -13 5 -20 -2 -7 2 -16 10 -19 9 -3 13 -9 11 -14 -7 -10 14 -37 36 -45
10 -4 15 -11 12 -17 -3 -5 5 -15 19 -21 14 -7 23 -15 21 -20 -6 -8 55 -42 63
-34 8 8 -7 35 -19 33 -6 -2 -14 3 -17 11 -3 10 0 12 12 8 10 -4 15 -3 11 3 -3
6 -15 10 -26 10 -10 0 -19 5 -19 11 0 6 -7 17 -15 25 -8 9 -15 24 -15 35 0 11
-11 24 -25 31 -14 6 -25 17 -25 25 0 20 -36 83 -44 76 -3 -3 -6 2 -6 12 0 10
3 15 7 12 10 -10 33 13 33 33 0 11 10 20 25 24 24 6 36 36 15 36 -5 0 -10 -6
-10 -13 0 -7 -14 -18 -31 -24 -26 -10 -30 -10 -25 3 3 9 6 24 6 35 0 24 17 25
23 1 4 -14 5 -15 6 -1 0 9 12 19 25 21 18 4 27 -1 35 -19 7 -15 7 -22 1 -18
-5 3 13 -28 40 -69 28 -42 50 -78 50 -82 0 -10 90 -94 100 -94 6 0 10 -4 10
-10 0 -5 7 -10 15 -10 8 0 15 -3 15 -8 0 -4 13 -13 29 -20 41 -18 164 -53 169
-47 2 2 -9 7 -24 11 -37 9 -84 36 -79 45 5 8 -43 59 -56 59 -4 0 -37 20 -73
45 -71 50 -130 111 -121 126 4 5 2 9 -3 9 -6 0 -13 7 -16 16 -14 36 7 28 56
-21 38 -37 70 -58 113 -74 33 -12 69 -26 80 -31 51 -24 272 -39 317 -21 13 5
49 14 81 21 47 9 57 15 52 28 -3 8 0 19 7 24 8 5 2 6 -14 2 -35 -8 -36 5 -3
44 15 18 21 33 15 37 -18 11 -1 76 41 153 44 81 129 250 129 257 0 2 13 32 28
67 32 71 52 125 77 213 10 33 28 94 40 135 13 41 27 100 32 130 11 65 13 62
50 -94 l28 -118 40 -14 c22 -7 81 -14 130 -14 96 -1 126 -5 275 -39 90 -20
217 -33 495 -50 141 -9 281 -45 394 -100 42 -20 109 -50 150 -66 73 -29 171
-103 171 -130 0 -7 42 -77 94 -156 106 -163 134 -214 294 -529 141 -279 152
-309 146 -395 -5 -61 -4 -65 16 -65 12 0 18 -5 15 -10 -3 -5 0 -10 8 -10 8 0
26 -21 40 -48 22 -41 28 -69 36 -168 1 -7 9 -14 20 -17 19 -4 33 -57 40 -149
0 -9 8 -23 16 -32 12 -11 13 -21 4 -43 -7 -18 -7 -29 0 -31 5 -2 7 -10 4 -19
-4 -9 -2 -14 3 -10 5 3 16 -8 23 -24 7 -17 27 -36 45 -44 17 -7 24 -14 14 -14
-13 -1 -16 -10 -14 -38 2 -30 6 -38 21 -38 35 0 46 -13 32 -36 -10 -16 -9 -21
3 -29 20 -13 50 -13 50 0 0 6 5 10 10 10 6 0 10 -5 10 -12 0 -7 12 -23 27 -35
14 -13 22 -23 16 -23 -17 0 -53 -36 -53 -53 0 -13 7 -15 30 -11 17 4 36 1 44
-5 11 -9 15 -8 20 4 3 8 11 15 17 15 8 0 8 -4 -1 -15 -10 -12 -10 -15 1 -15 9
-1 8 -5 -5 -15 -11 -8 -17 -15 -13 -15 4 0 -10 -16 -32 -35 -39 -35 -95 -57
-181 -70 -25 -4 -70 -18 -100 -32 -114 -52 -207 -85 -304 -109 -134 -32 -256
-32 -256 1 0 7 -7 15 -15 19 -8 3 -15 10 -15 16 0 13 -60 73 -66 67 -4 -4 26
-77 61 -147 21 -41 63 -181 70 -235 4 -27 18 -104 31 -170 59 -290 73 -498 54
-775 -5 -74 -7 -152 -3 -173 5 -36 6 -37 51 -37 35 0 43 3 34 12 -8 8 -8 17 0
31 7 14 7 22 -2 27 -9 5 -11 20 -7 43 3 19 3 38 -1 42 -3 3 -7 30 -9 58 -1 29
-7 66 -13 82 -11 30 -17 79 -25 235 -3 52 -6 102 -7 110 0 8 0 30 0 48 2 29 5
32 33 32 22 0 32 -5 36 -20 4 -14 14 -20 34 -20 16 0 29 -5 29 -11 0 -5 5 -7
10 -4 6 3 10 -1 10 -9 0 -9 4 -16 10 -16 5 0 6 7 3 17 -4 9 -2 14 4 10 5 -3
15 -23 22 -45 7 -21 19 -39 27 -39 11 0 10 5 -3 19 -15 16 -15 21 -3 28 16 10
30 4 30 -13 1 -23 40 -59 65 -59 29 0 44 -17 25 -28 -9 -6 -6 -10 9 -15 12 -4
20 -12 18 -18 -4 -14 16 -37 33 -37 14 0 80 -66 80 -80 0 -6 -10 -10 -22 -10
-21 -1 -21 -2 -6 -13 9 -8 18 -20 20 -28 2 -7 10 -20 18 -27 13 -12 12 -13 -7
-9 -15 4 -23 0 -23 -9 0 -16 -16 -19 -25 -4 -8 14 -35 13 -35 -1 0 -6 7 -9 15
-5 8 3 15 1 15 -5 0 -12 -61 -69 -74 -69 -5 0 -6 -3 -3 -6 4 -4 12 -2 20 4 10
9 13 4 14 -22 1 -29 -2 -33 -19 -28 -17 4 -19 1 -14 -15 4 -12 1 -25 -9 -33
-8 -7 -12 -16 -9 -22 3 -5 0 -15 -6 -23 -10 -12 -10 -18 0 -30 10 -13 9 -15
-8 -15 -13 0 -22 8 -24 20 -3 18 -4 18 -15 -5 l-11 -25 738 0 739 0 -1 4000 0
4000 -410 0 -410 0 6 -24 c4 -15 0 -28 -9 -36 -8 -7 -15 -16 -15 -21 0 -4 -4
-19 -10 -33 -9 -25 -10 -26 -30 -9 -29 25 -25 60 11 94 l31 29 -891 0 -891 0
1 -112 c0 -62 0 -124 0 -138 0 -14 1 -54 3 -90 2 -38 -3 -85 -12 -114 -12 -39
-13 -55 -3 -82 9 -24 9 -39 2 -53 -6 -11 -11 -30 -11 -43 1 -13 -2 -37 -6 -54
-4 -21 -1 -34 10 -43 17 -14 21 -43 9 -55 -8 -8 -9 -13 -12 -41 0 -8 -8 -15
-16 -15 -8 0 -15 -5 -15 -11 0 -5 4 -8 9 -5 13 8 20 -41 8 -53 -6 -6 -17 -11
-24 -11 -17 0 -17 -17 0 -23 10 -4 10 -6 0 -6 -7 -1 -13 -14 -13 -29 0 -16 -9
-38 -19 -49 -14 -15 -17 -23 -8 -32 8 -8 8 -11 -1 -11 -6 0 -9 -7 -6 -15 4 -8
0 -23 -7 -32 -10 -12 -10 -15 -1 -9 16 9 16 -24 0 -59 -12 -27 -23 -32 -32
-12 -3 6 -3 -1 -1 -18 3 -16 -1 -32 -7 -36 -6 -4 -11 -25 -11 -48 0 -77 -15
-51 -21 37 -15 221 -33 643 -41 972 -3 135 -8 255 -11 268 -4 19 -11 22 -55
22 l-51 0 6 -112 c19 -350 35 -1173 22 -1185 -3 -4 -8 7 -12 23 -4 23 -11 29
-35 31 -20 2 -29 -2 -29 -12 0 -8 -4 -15 -10 -15 -5 0 -7 -7 -4 -15 4 -8 10
-12 15 -9 5 3 9 0 9 -5 0 -20 -32 -11 -37 9 -3 11 -10 20 -15 20 -5 0 -6 5 -2
12 4 6 3 8 -4 5 -5 -4 -8 -17 -4 -30 5 -21 4 -21 -15 -4 -26 23 -33 22 -33 -7
0 -31 -10 -56 -21 -56 -5 0 -9 14 -9 30 0 28 -8 34 -36 31 -6 -1 -10 15 -9 36
1 21 -2 40 -5 43 -7 5 -22 315 -42 868 l-12 342 -38 0 c-28 0 -38 -4 -38 -16
0 -9 -8 -29 -17 -44 -15 -26 -15 -31 -1 -52 24 -37 27 -65 33 -393 13 -718 10
-785 -32 -785 -7 0 -13 -4 -13 -10 0 -5 7 -7 15 -4 10 4 15 0 15 -11 0 -12 -5
-15 -16 -11 -9 3 -18 6 -20 6 -2 0 -4 9 -4 19 0 28 -17 35 -25 11 -3 -11 -11
-20 -16 -20 -6 0 -8 4 -5 8 3 5 -2 18 -12 28 -21 23 -22 47 -2 56 12 5 12 7
-2 7 -11 1 -15 6 -11 16 3 9 2 15 -3 14 -36 -6 -46 2 -41 30 5 24 2 30 -17 35
-23 6 -43 54 -27 66 10 8 10 61 0 54 -13 -8 -11 10 3 24 8 8 8 12 1 12 -18 0
-23 44 -29 253 -2 111 -6 231 -8 267 -2 36 1 72 5 81 5 9 5 19 2 23 -12 12
-14 55 -4 74 5 10 6 24 1 32 -4 8 -11 42 -15 74 -6 51 -5 58 9 53 9 -4 16 -2
16 4 0 5 -7 12 -15 15 -10 4 -15 20 -15 45 l0 39 -70 0 c-50 0 -70 -4 -70 -12
1 -7 5 -101 10 -208 5 -107 12 -316 15 -465 3 -148 8 -313 11 -366 4 -74 2
-100 -9 -110 -7 -8 -12 -20 -11 -27 1 -7 0 -8 -3 -2 -2 5 -18 10 -33 10 -16 0
-32 5 -36 12 -4 7 -3 8 4 4 7 -4 12 -3 12 2 0 17 -13 21 -31 11 -15 -7 -19 -6
-19 5 0 7 -6 16 -14 19 -16 6 -26 60 -14 81 6 11 3 13 -11 9 -10 -3 -31 3 -45
13 l-27 17 4 -36 c3 -24 0 -38 -9 -41 -8 -3 -14 -19 -14 -36 0 -17 4 -29 9
-25 5 3 13 0 17 -7 4 -7 4 -10 -1 -6 -4 4 -13 0 -20 -9 -15 -21 -19 34 -42
675 l-17 492 -40 0 -39 0 7 -207 c3 -115 9 -271 11 -348 13 -354 13 -623 2
-639 -10 -14 -12 -9 -13 26 -1 24 -3 85 -4 136 -2 50 -6 92 -10 92 -4 0 -7 8
-6 17 0 10 -4 18 -11 18 -20 0 -27 14 -10 21 9 3 14 11 11 17 -2 7 -6 38 -8
70 -2 32 -6 60 -9 63 -3 3 -3 26 -1 50 3 27 1 44 -5 44 -14 0 -14 35 -1 60 7
13 7 21 0 25 -12 7 -14 92 -2 99 4 2 7 100 6 218 0 122 3 218 9 226 8 9 -383
12 -1947 12 l-1956 0 0 -3905z m5914 3820 c20 -153 15 -347 -8 -324 -3 3 -8
93 -12 200 -3 128 -2 189 5 179 5 -8 12 -33 15 -55z m-119 -261 c4 -121 9
-243 10 -270 7 -88 7 -365 1 -371 -3 -4 -6 18 -6 48 -1 66 -8 175 -17 249 -4
30 -6 64 -5 76 1 11 -2 41 -7 67 -4 25 -5 44 0 41 4 -2 6 105 4 238 -2 146 -1
223 4 193 5 -28 12 -150 16 -271z m-2498 119 c-2 -16 -4 -5 -4 22 0 28 2 40 4
28 2 -13 2 -35 0 -50z m-90 -160 c-2 -32 -3 -6 -3 57 0 63 1 89 3 58 2 -32 2
-84 0 -115z m90 5 c-2 -24 -4 -7 -4 37 0 44 2 63 4 43 2 -21 2 -57 0 -80z m10
-260 c-2 -35 -3 -7 -3 62 0 69 1 97 3 63 2 -35 2 -91 0 -125z m-90 -10 c-2
-24 -4 -7 -4 37 0 44 2 63 4 43 2 -21 2 -57 0 -80z m2393 80 c0 -18 -5 -40
-10 -48 -8 -13 -11 -12 -24 5 -14 17 -17 18 -26 5 -8 -12 -10 -11 -10 8 0 17
8 27 30 35 17 6 30 15 30 19 0 4 2 8 5 8 3 0 5 -15 5 -32z m50 -58 c0 -5 -4
-10 -10 -10 -5 0 -10 5 -10 10 0 6 5 10 10 10 6 0 10 -4 10 -10z m-28 -57 c-3
-15 1 -29 9 -35 11 -8 10 -9 -3 -4 -13 4 -18 0 -18 -14 0 -11 -4 -20 -10 -20
-13 0 -13 35 1 84 12 43 30 34 21 -11z m-2315 -190 c-3 -10 -5 -4 -5 12 0 17
2 24 5 18 2 -7 2 -21 0 -30z m0 -65 c-3 -8 -6 -5 -6 6 -1 11 2 17 5 13 3 -3 4
-12 1 -19z m833 -162 c0 -3 -4 -8 -10 -11 -5 -3 -10 -1 -10 4 0 6 5 11 10 11
6 0 10 -2 10 -4z m145 -125 c5 -17 4 -22 -6 -19 -8 3 -15 17 -16 33 -2 31 11
23 22 -14z m386 -124 c-1 -4 -1 -12 -1 -17 0 -7 -6 -7 -20 0 -28 15 -27 42 1
32 11 -5 20 -11 20 -15z m209 -14 c0 -5 -5 -15 -10 -23 -8 -12 -10 -11 -10 8
0 12 5 22 10 22 6 0 10 -3 10 -7z m-1290 -373 c0 -5 -8 -10 -17 -10 -15 0 -16
2 -3 10 19 12 20 12 20 0z m235 -20 c3 -5 2 -10 -4 -10 -5 0 -13 5 -16 10 -3
6 -2 10 4 10 5 0 13 -4 16 -10z m0 -50 c3 -5 2 -10 -4 -10 -5 0 -13 5 -16 10
-3 6 -2 10 4 10 5 0 13 -4 16 -10z m-390 -20 c3 -5 1 -10 -4 -10 -6 0 -11 5
-11 10 0 6 2 10 4 10 3 0 8 -4 11 -10z m392 -36 c-3 -3 -12 -4 -19 -1 -8 3 -5
6 6 6 11 1 17 -2 13 -5z m-751 -39 c1 -8 -2 -15 -7 -15 -5 0 -9 10 -9 22 0 23
12 17 16 -7z m784 11 c0 -2 -11 -6 -25 -8 -13 -3 -22 -1 -19 3 5 9 44 13 44 5z
m45 -16 c-3 -5 -13 -10 -21 -10 -8 0 -14 -4 -14 -10 0 -5 -4 -10 -10 -10 -19
0 -10 21 13 30 30 12 39 12 32 0z m-941 -86 c3 -8 2 -12 -4 -9 -6 3 -10 10
-10 16 0 14 7 11 14 -7z m1026 -34 c8 -2 -54 -34 -72 -37 -10 -2 -18 2 -18 8
0 5 5 7 12 3 7 -5 9 -2 5 8 -3 9 -3 18 0 21 4 4 53 3 73 -3z m-301 -222 c40
-17 45 -18 53 -4 27 48 154 -6 220 -92 23 -31 58 -74 77 -94 19 -21 40 -47 48
-58 8 -11 20 -20 28 -20 19 0 22 -5 45 -111 11 -51 23 -102 26 -111 9 -29 -23
-22 -83 18 -43 28 -65 36 -106 38 -29 1 -57 4 -62 6 -16 8 -125 5 -179 -4 -80
-13 -157 -73 -142 -112 4 -11 -4 -12 -42 -7 -26 3 -48 10 -50 15 -2 4 -9 8
-15 8 -7 0 -17 10 -22 23 -6 12 -20 23 -32 25 -13 2 -23 8 -23 13 0 6 -5 7
-10 4 -6 -4 -17 -1 -25 5 -12 10 -15 10 -15 -2 0 -10 -8 -13 -30 -10 -16 2
-30 7 -30 11 0 10 -92 2 -105 -9 -7 -6 -30 -12 -53 -15 -22 -3 -53 -10 -67
-15 -15 -6 -30 -10 -35 -10 -4 0 -10 38 -11 85 -2 47 -9 89 -15 93 -6 4 -10
17 -9 30 1 12 -2 22 -7 22 -11 0 40 99 65 128 11 12 26 22 33 22 7 0 18 9 24
19 20 38 69 62 143 72 93 12 121 19 113 26 -8 9 26 32 47 33 10 0 15 -4 12
-10 -8 -12 -13 -13 64 9 69 19 83 17 170 -21z m371 -158 c0 -14 -14 -12 -28 2
-19 19 -14 30 8 18 11 -6 20 -15 20 -20z m-73 -307 c-4 -3 -33 -7 -64 -8 -39
-1 -50 0 -33 5 31 10 106 12 97 3z m-598 -64 c48 -17 32 -20 -19 -4 -25 7 -38
14 -29 14 9 1 30 -4 48 -10z m835 -75 c4 -19 9 -41 12 -48 3 -7 -7 -18 -21
-24 -25 -11 -25 -11 -25 32 0 78 23 104 34 40z m-234 1 c36 -18 41 -41 8 -31
-13 4 -42 10 -65 13 -41 5 -51 12 -36 26 11 12 63 7 93 -8z m-350 -35 c11 -11
20 -30 20 -41 0 -31 37 -101 83 -156 22 -26 44 -60 49 -74 9 -26 9 -26 155
-33 115 -6 149 -5 159 6 11 11 4 12 -41 10 -30 -2 -87 2 -127 9 l-73 13 76 6
c52 4 87 13 113 28 47 28 54 28 59 0 4 -23 4 -23 14 2 6 14 14 23 18 20 5 -3
13 9 18 25 12 38 59 108 72 109 24 2 32 -186 13 -311 -6 -43 -11 -87 -11 -98
4 -157 4 -185 -6 -185 -5 0 -12 -20 -15 -45 -4 -25 -12 -45 -18 -45 -5 0 -8 7
-4 15 11 29 -12 15 -24 -15 -13 -32 -30 -40 -30 -15 0 21 -26 19 -34 -2 -6
-15 -8 -15 -16 -3 -7 11 -10 6 -10 -19 0 -33 -1 -34 -15 -15 -13 16 -16 17
-25 4 -9 -15 5 -33 33 -43 6 -2 8 -11 4 -21 -5 -13 -11 -15 -26 -7 -16 9 -22
5 -40 -31 -11 -23 -17 -46 -14 -51 3 -6 1 -7 -4 -4 -6 4 -14 0 -17 -8 -3 -9
-17 -20 -31 -25 -14 -5 -24 -15 -23 -21 2 -6 -10 -13 -25 -16 -18 -2 -26 0
-22 6 3 7 0 8 -9 5 -9 -3 -13 -10 -11 -15 7 -11 -40 -23 -60 -16 -8 4 -17 2
-19 -2 -8 -13 -208 -6 -241 9 -16 7 -37 14 -45 14 -8 1 -14 7 -13 14 2 6 -4
12 -12 12 -8 0 -15 5 -15 11 0 5 -4 7 -10 4 -5 -3 -10 1 -10 9 0 9 -3 16 -7
17 -31 3 -48 10 -52 20 -2 6 -12 20 -22 30 -11 11 -16 19 -11 20 4 1 -4 4 -18
8 -14 4 -29 17 -35 29 -5 12 -16 20 -22 17 -8 -2 -13 4 -13 16 0 15 -5 19 -15
15 -10 -3 -15 1 -15 12 0 9 -11 27 -24 40 -13 12 -27 34 -31 49 -3 15 -11 30
-16 34 -13 8 10 69 26 69 14 0 18 -3 80 -74 73 -82 95 -114 95 -134 0 -26 29
-49 106 -86 30 -14 66 -15 149 -1 17 3 50 7 75 10 51 7 130 49 130 70 0 23
-23 26 -252 36 -10 0 -18 4 -18 10 0 5 -3 8 -7 7 -5 -1 -21 2 -37 7 l-29 8 22
19 c16 13 40 18 80 18 31 0 83 7 116 16 33 9 83 20 110 26 28 5 71 15 97 23
43 12 48 11 64 -6 9 -10 20 -16 25 -13 11 7 -11 55 -38 81 -19 18 -25 19 -40
8 -14 -11 -22 -11 -43 0 -50 25 -139 34 -220 20 l-45 -7 40 42 c22 23 56 50
76 60 44 23 55 36 63 76 7 29 5 32 -26 38 -18 3 -40 16 -48 27 -14 18 -20 19
-45 8 -50 -19 -97 -18 -133 2 -43 25 -60 24 -64 -3 -4 -32 -48 -39 -48 -8 0
24 42 70 63 70 8 0 17 9 20 20 5 18 4 19 -16 5 -35 -25 -39 -17 -11 25 15 22
31 37 37 33 5 -3 7 0 5 8 -3 8 1 36 8 62 7 27 10 55 7 62 -7 20 42 65 72 65
14 0 34 -9 45 -20z m520 -28 c0 -15 -8 -49 -17 -75 l-17 -48 -41 6 -40 6 24
-19 c15 -12 21 -24 16 -32 -13 -22 -109 -60 -151 -60 -106 0 -212 77 -230 168
l-7 33 48 -26 c26 -14 56 -25 65 -25 9 0 30 -7 46 -15 40 -20 142 -17 154 4 6
11 3 23 -11 37 l-20 22 31 4 c17 3 33 1 36 -4 18 -28 109 17 97 49 -4 11 -3
14 5 9 7 -4 12 -19 12 -34z m215 -69 c7 -14 8 -48 2 -99 -5 -44 -10 -106 -12
-138 -3 -33 -9 -73 -15 -89 -5 -17 -10 -40 -10 -53 0 -23 -54 -94 -71 -94 -15
0 -10 125 6 156 8 16 15 36 15 45 0 8 5 20 11 26 7 7 8 20 3 34 -4 13 -7 33
-5 44 6 38 41 63 41 29 0 -14 3 -14 15 -4 20 16 21 120 2 120 -7 0 -19 -6 -26
-12 -10 -11 -11 -7 -5 17 4 17 9 34 11 38 7 13 27 2 38 -20z m-405 7 c0 -5 -4
-10 -10 -10 -5 0 -10 5 -10 10 0 6 5 10 10 10 6 0 10 -4 10 -10z m-510 -78 c0
-18 -66 -84 -103 -104 -61 -32 -177 -32 -233 0 -39 23 -71 59 -60 69 3 3 38 7
78 9 40 2 98 8 128 14 97 18 190 24 190 12z m-390 -87 c27 -29 116 -65 163
-66 19 0 -7 -10 -68 -25 -64 -16 -101 -21 -103 -14 -2 5 -8 8 -13 4 -5 -3 -9
0 -9 6 0 8 -9 10 -24 6 -19 -5 -25 -1 -30 17 -8 32 -8 33 20 66 31 37 34 38
64 6z m217 -142 c7 -21 -87 -103 -123 -108 -19 -2 -34 0 -34 5 0 6 -7 10 -15
10 -25 0 -29 29 -9 51 33 37 86 59 133 56 25 -1 46 -7 48 -14z m93 1 c0 -8 -5
-12 -10 -9 -6 4 -8 11 -5 16 9 14 15 11 15 -7z m-18 -100 c-3 -36 -22 -75 -22
-45 0 8 -7 11 -19 8 -27 -7 -35 21 -14 47 41 48 59 45 55 -10z m358 -143 c18
-34 12 -39 -57 -48 -99 -11 -135 -4 -100 21 9 7 17 18 17 25 0 17 28 13 38 -5
8 -15 11 -15 31 5 26 26 57 27 71 2z m465 -140 c3 -5 1 -12 -5 -16 -5 -3 -10
1 -10 9 0 18 6 21 15 7z m-38 -43 c-3 -8 -6 -5 -6 6 -1 11 2 17 5 13 3 -3 4
-12 1 -19z m-17 -23 c0 -5 -5 -3 -10 5 -5 8 -10 20 -10 25 0 6 5 3 10 -5 5 -8
10 -19 10 -25z m-2600 -141 c0 -8 -5 -12 -10 -9 -6 4 -8 11 -5 16 9 14 15 11
15 -7z m175 -2 c-6 -4 -12 -16 -13 -27 -1 -11 -6 -45 -11 -75 l-9 -55 0 83 c1
77 2 82 22 82 12 0 16 -4 11 -8z m55 -8 c0 -8 -5 -12 -10 -9 -6 4 -8 11 -5 16
9 14 15 11 15 -7z m160 6 c-12 -8 -12 -10 3 -16 26 -9 21 -39 -9 -53 -33 -15
-42 -7 -21 17 15 16 15 19 -3 30 -18 11 -20 9 -21 -10 -1 -13 -1 -26 0 -30 0
-5 -3 -8 -7 -8 -5 0 -9 18 -10 40 l-2 40 43 0 c30 0 38 -3 27 -10z m330 -20
c0 -5 -6 -10 -14 -10 -10 0 -13 -8 -10 -25 2 -14 0 -25 -6 -25 -5 0 -10 16
-10 35 0 28 4 35 20 35 11 0 20 -4 20 -10z m257 -12 c-3 -8 -6 -5 -6 6 -1 11
2 17 5 13 3 -3 4 -12 1 -19z m1560 7 c0 -8 -9 -15 -19 -15 -11 0 -18 -7 -18
-20 0 -11 -4 -20 -10 -20 -16 0 -12 15 11 44 23 29 36 33 36 11z m-2020 -15
c1 -11 -2 -20 -8 -20 -5 0 -9 9 -9 20 0 11 4 20 8 20 4 0 8 -9 9 -20z m646
-22 c-3 -24 -9 -59 -13 -78 l-8 -35 -1 38 c-1 22 -6 37 -13 37 -7 0 -5 5 5 11
14 8 17 18 12 40 -5 22 -3 29 8 29 12 0 14 -9 10 -42z m-724 -25 c-1 -57 -1
-57 -9 -18 -8 37 -5 75 6 75 2 0 3 -26 3 -57z m851 31 c0 -8 -4 -12 -10 -9 -5
3 -10 10 -10 16 0 5 5 9 10 9 6 0 10 -7 10 -16z m-883 -30 c-3 -3 -12 -4 -19
-1 -8 3 -5 6 6 6 11 1 17 -2 13 -5z m263 -13 c0 -6 -4 -13 -10 -16 -5 -3 -10
1 -10 9 0 9 5 16 10 16 6 0 10 -4 10 -9z m289 -13 c-1 -16 -3 -18 -6 -6 -2 9
-16 19 -31 21 -24 4 -24 4 6 6 27 1 32 -2 31 -21z m-289 -42 c0 -3 -4 -8 -10
-11 -5 -3 -10 -1 -10 4 0 6 5 11 10 11 6 0 10 -2 10 -4z m-818 -30 c4 -17 1
-23 -9 -19 -15 6 -15 6 -7 27 8 22 11 20 16 -8z m872 9 c-5 -11 -2 -13 10 -9
9 3 16 10 16 15 0 5 5 9 10 9 18 0 10 -22 -10 -27 -11 -3 -20 -10 -20 -16 0
-6 -8 -2 -19 9 -12 13 -15 21 -7 26 18 12 26 9 20 -7z m-354 -25 c-19 -13 -30
-13 -30 0 0 6 10 10 23 10 18 0 19 -2 7 -10z m212 -117 c-7 -12 -9 -3 -6 33 5
77 7 83 11 32 2 -26 0 -56 -5 -65z m-732 93 c0 -3 -4 -8 -10 -11 -5 -3 -10 -1
-10 4 0 6 5 11 10 11 6 0 10 -2 10 -4z m1108 -27 c1 -17 -2 -28 -7 -25 -10 6
-12 56 -2 56 4 0 8 -14 9 -31z m189 -6 c-3 -10 -5 -4 -5 12 0 17 2 24 5 18 2
-7 2 -21 0 -30z m-1080 11 c-3 -3 -12 -4 -19 -1 -8 3 -5 6 6 6 11 1 17 -2 13
-5z m768 -151 c-13 -300 -14 -380 -2 -345 5 17 14 32 18 32 5 0 7 -6 5 -12 -3
-7 -7 -25 -10 -40 -4 -17 -13 -28 -22 -28 -15 0 -16 21 -9 207 4 114 9 214 10
222 2 9 4 37 4 64 1 26 4 47 7 47 3 0 3 -66 -1 -147z m-980 92 c0 -5 5 -10 12
-10 23 0 26 -15 2 -16 -17 -1 -19 -3 -6 -6 23 -6 22 -18 -2 -20 -11 -1 -22 6
-24 15 -3 9 -5 0 -6 -22 -1 -32 2 -37 17 -32 15 5 15 5 1 -6 -17 -14 -18 -18
-22 -85 -1 -23 -6 -45 -11 -50 -10 -9 1 254 11 270 6 10 27 -20 28 -38z m1092
-62 c-2 -16 -4 -3 -4 27 0 30 2 43 4 28 2 -16 2 -40 0 -55z m203 33 c0 -3 -4
-8 -10 -11 -5 -3 -10 -1 -10 4 0 6 5 11 10 11 6 0 10 -2 10 -4z m-764 -41 c-1
-19 -1 -35 -2 -35 -1 0 -10 12 -19 27 -15 22 -15 25 -2 20 11 -4 14 -2 10 9
-3 7 -1 14 4 14 5 0 9 -16 9 -35z m184 -269 c-11 -238 -18 -318 -21 -240 -6
142 17 551 29 515 2 -7 -1 -131 -8 -275z m180 274 c0 -5 -2 -10 -4 -10 -3 0
-8 5 -11 10 -3 6 -1 10 4 10 6 0 11 -4 11 -10z m-860 -4 c0 -3 -4 -8 -10 -11
-5 -3 -10 -1 -10 4 0 6 5 11 10 11 6 0 10 -2 10 -4z m1248 -88 c-1 -72 -2 -76
-7 -33 -6 48 -3 115 5 115 2 0 3 -37 2 -82z m-188 23 c0 -58 -11 -101 -25
-101 -9 0 -13 16 -13 55 0 39 5 55 14 55 8 0 11 6 8 15 -4 8 -1 15 5 15 6 0
11 -17 11 -39z m-572 9 c11 -18 11 -121 -1 -347 0 -7 -4 -13 -8 -13 -12 0 -15
51 -6 94 9 47 5 256 -5 256 -5 0 -8 7 -8 15 0 21 13 19 28 -5z m313 -73 c-7
-7 -7 -15 -1 -22 7 -8 7 -21 1 -36 -5 -13 -10 -17 -11 -9 0 13 -1 13 -10 0 -7
-11 -9 0 -7 38 2 33 8 57 17 62 18 12 28 -16 11 -33z m-424 -9 c-3 -8 -6 -5
-6 6 -1 11 2 17 5 13 3 -3 4 -12 1 -19z m63 -24 c0 -8 -4 -14 -10 -14 -5 0
-10 9 -10 21 0 11 5 17 10 14 6 -3 10 -13 10 -21z m-63 -16 c-3 -8 -6 -5 -6 6
-1 11 2 17 5 13 3 -3 4 -12 1 -19z m592 -32 c-9 -8 -10 -7 -5 7 3 10 7 24 7
30 1 7 3 4 6 -7 3 -10 -1 -23 -8 -30z m81 3 c0 -33 -3 -35 -24 -13 -22 21 -20
39 4 41 16 1 20 -4 20 -28z m-600 -9 c0 -16 -4 -30 -9 -30 -5 0 -11 -13 -13
-30 -3 -16 -1 -30 4 -30 12 0 10 -34 -4 -48 -9 -9 -9 -12 0 -12 7 0 12 -9 12
-20 0 -12 -7 -20 -16 -20 -11 0 -14 -5 -9 -17 5 -14 3 -15 -5 -7 -9 9 -9 17
-1 32 8 15 8 22 -2 25 -9 3 -9 10 2 28 8 14 10 24 4 26 -6 2 -7 18 -2 41 5 20
11 49 14 65 7 36 25 35 25 -3z m-514 -55 c0 -19 -4 -35 -9 -35 -5 0 -4 -7 3
-14 8 -11 9 -20 1 -33 -9 -16 -11 -15 -12 7 -5 58 -3 86 5 98 12 17 12 16 12
-23z m1110 -10 c-3 -9 -10 -13 -16 -10 -6 4 -5 11 3 20 15 16 22 11 13 -10z
m-586 -5 c0 -11 -4 -20 -10 -20 -5 0 -10 9 -10 20 0 11 5 20 10 20 6 0 10 -9
10 -20z m377 -22 c-3 -8 -6 -5 -6 6 -1 11 2 17 5 13 3 -3 4 -12 1 -19z m-462
2 c3 -5 1 -10 -4 -10 -6 0 -11 5 -11 10 0 6 2 10 4 10 3 0 8 -4 11 -10z m1220
-40 c3 -5 1 -10 -4 -10 -6 0 -11 5 -11 10 0 6 2 10 4 10 3 0 8 -4 11 -10z
m-1574 -60 l-9 -25 -12 30 c-13 35 -13 40 -1 40 5 0 13 4 18 8 12 13 15 -25 4
-53z m-104 -2 c-3 -7 -5 -2 -5 12 0 14 2 19 5 13 2 -7 2 -19 0 -25z m1023 -38
c0 -5 -4 -10 -10 -10 -5 0 -10 5 -10 10 0 6 5 10 10 10 6 0 10 -4 10 -10z
m-953 -32 c-3 -8 -6 -5 -6 6 -1 11 2 17 5 13 3 -3 4 -12 1 -19z m448 12 c3 -5
1 -10 -4 -10 -6 0 -11 5 -11 10 0 6 2 10 4 10 3 0 8 -4 11 -10z m493 -28 c-1
-10 0 -21 3 -27 3 -5 0 -21 -7 -35 -13 -23 -14 -21 -14 33 0 38 4 56 10 52 6
-4 10 -14 8 -23z m-1014 -22 c-2 -58 -14 -63 -14 -7 0 26 4 47 8 47 5 0 7 -18
6 -40z m748 -77 c-4 -55 -12 -54 -12 2 0 27 3 45 7 41 4 -4 6 -23 5 -43z
m-749 -55 c2 -31 0 -55 -4 -52 -5 2 -6 -10 -4 -28 2 -18 0 -40 -6 -48 -10 -16
-11 125 -1 178 6 33 9 23 15 -50z m-13 -200 c0 -16 -3 -19 -11 -11 -6 6 -8 16
-5 22 11 17 16 13 16 -11z m587 -725 c-3 -10 -5 -2 -5 17 0 19 2 27 5 18 2
-10 2 -26 0 -35z m6 -43 c3 -11 1 -20 -4 -20 -5 0 -9 9 -9 20 0 11 2 20 4 20
2 0 6 -9 9 -20z m-1486 -486 c-3 -3 -12 -4 -19 -1 -8 3 -5 6 6 6 11 1 17 -2
13 -5z m-227 -1063 c0 -16 -42 -20 -57 -5 -13 12 -10 14 21 14 20 0 36 -4 36
-9z m6360 -1 c0 -5 -5 -10 -11 -10 -5 0 -7 5 -4 10 3 6 8 10 11 10 2 0 4 -4 4
-10z m-6140 -90 c0 -5 -5 -10 -11 -10 -5 0 -7 5 -4 10 3 6 8 10 11 10 2 0 4
-4 4 -10z m280 -45 c0 -8 -4 -15 -9 -15 -13 0 -22 16 -14 24 11 11 23 6 23 -9z
m597 -221 c-3 -3 -12 -4 -19 -1 -8 3 -5 6 6 6 11 1 17 -2 13 -5z m-237 -29 c0
-12 -19 -12 -23 0 -4 9 -1 12 9 8 7 -3 14 -7 14 -8z m5611 2 c-1 -12 -15 -9
-19 4 -3 6 1 10 8 8 6 -3 11 -8 11 -12z m-46 -107 c-3 -5 -10 -10 -16 -10 -5
0 -9 5 -9 10 0 6 7 10 16 10 8 0 12 -4 9 -10z"/>
<path d="M3890 4729 c0 -6 14 -27 30 -46 17 -19 28 -38 26 -42 -3 -4 11 -32
30 -62 l35 -54 -5 40 c-3 22 -10 41 -16 43 -5 2 -10 10 -10 18 0 8 -4 14 -9
14 -5 0 -12 12 -16 28 -3 15 -13 37 -21 50 -15 23 -44 30 -44 11z"/>
<path d="M2455 3550 c-3 -5 -1 -10 4 -10 6 0 11 5 11 10 0 6 -2 10 -4 10 -3 0
-8 -4 -11 -10z"/>
<path d="M4071 7954 c0 -11 3 -14 6 -6 3 7 2 16 -1 19 -3 4 -6 -2 -5 -13z"/>
<path d="M4611 7813 c0 -5 4 -17 9 -28 8 -18 9 -17 9 8 1 15 -3 27 -9 27 -5 0
-10 -3 -9 -7z"/>
<path d="M4113 7557 c-3 -5 -1 -13 5 -19 6 -6 8 -16 6 -23 -3 -7 -2 -15 3 -18
5 -3 9 2 9 11 0 9 3 26 7 38 5 15 3 21 -8 21 -9 0 -18 -4 -22 -10z"/>
<path d="M4180 6890 c0 -5 5 -10 10 -10 6 0 10 5 10 10 0 6 -4 10 -10 10 -5 0
-10 -4 -10 -10z"/>
<path d="M4530 6840 c0 -5 5 -10 10 -10 6 0 10 5 10 10 0 6 -4 10 -10 10 -5 0
-10 -4 -10 -10z"/>
<path d="M4830 6740 c0 -5 5 -10 10 -10 6 0 10 5 10 10 0 6 -4 10 -10 10 -5 0
-10 -4 -10 -10z"/>
<path d="M4364 4069 c14 -17 27 -40 27 -52 1 -14 3 -16 6 -7 6 24 -25 90 -43
90 -12 0 -10 -7 10 -31z"/>
<path d="M4401 3974 c0 -11 3 -14 6 -6 3 7 2 16 -1 19 -3 4 -6 -2 -5 -13z"/>
<path d="M2181 3424 c0 -11 3 -14 6 -6 3 7 2 16 -1 19 -3 4 -6 -2 -5 -13z"/>
<path d="M3915 3331 c-3 -5 -2 -12 3 -15 5 -3 9 1 9 9 0 17 -3 19 -12 6z"/>
<path d="M2236 3249 c-5 -25 -9 -29 -26 -24 -12 4 -20 2 -20 -5 0 -6 4 -9 9
-6 5 3 11 -1 15 -9 6 -17 36 -21 36 -4 0 5 5 7 10 4 6 -3 10 1 10 9 0 9 -6 16
-14 16 -9 0 -12 8 -8 25 2 14 2 25 -1 25 -2 0 -7 -14 -11 -31z"/>
<path d="M2230 3155 c0 -14 5 -25 10 -25 6 0 10 11 10 25 0 14 -4 25 -10 25
-5 0 -10 -11 -10 -25z"/>
<path d="M2953 3118 c-14 -51 -7 -68 15 -37 10 14 12 24 5 26 -5 2 -8 15 -5
28 7 41 -3 28 -15 -17z"/>
<path d="M2253 3100 c1 -21 10 -18 13 5 1 8 -2 15 -6 15 -5 0 -8 -9 -7 -20z"/>
<path d="M3236 3085 c4 -8 11 -15 16 -15 6 0 5 6 -2 15 -7 8 -14 15 -16 15 -2
0 -1 -7 2 -15z"/>
<path d="M2192 3032 c-11 -25 -11 -25 4 -10 9 9 15 21 13 27 -2 6 -10 -2 -17
-17z"/>
<path d="M3255 3040 c-3 -5 -1 -10 4 -10 6 0 11 5 11 10 0 6 -2 10 -4 10 -3 0
-8 -4 -11 -10z"/>
<path d="M3290 2989 c0 -5 5 -7 10 -4 6 3 10 8 10 11 0 2 -4 4 -10 4 -5 0 -10
-5 -10 -11z"/>
<path d="M3288 2933 c7 -3 16 -2 19 1 4 3 -2 6 -13 5 -11 0 -14 -3 -6 -6z"/>
<path d="M3338 2913 c6 -2 18 -2 25 0 6 3 1 5 -13 5 -14 0 -19 -2 -12 -5z"/>
<path d="M2151 2864 c0 -11 3 -14 6 -6 3 7 2 16 -1 19 -3 4 -6 -2 -5 -13z"/>
<path d="M2047 2336 c-3 -7 8 -29 23 -47 16 -19 29 -42 30 -51 0 -10 5 -17 10
-15 16 3 40 -57 29 -74 -6 -10 -9 -6 -9 14 0 15 -5 27 -11 27 -12 0 -4 -50 10
-60 3 -3 6 -15 5 -27 -1 -25 4 -28 26 -13 12 8 13 12 2 19 -8 4 -12 17 -10 27
3 14 12 3 31 -36 15 -30 40 -73 57 -95 16 -22 29 -48 30 -57 0 -10 14 -32 30
-50 44 -48 49 -54 130 -155 40 -51 77 -93 81 -93 12 0 42 -62 73 -150 15 -41
36 -94 46 -117 11 -24 20 -45 20 -49 0 -18 81 -191 122 -259 26 -44 48 -86 48
-92 0 -7 5 -13 10 -13 6 0 10 -6 10 -14 0 -8 6 -21 13 -28 6 -7 23 -35 37 -61
29 -57 36 -63 54 -48 10 9 15 8 19 -4 4 -8 1 -14 -5 -12 -25 5 -10 -43 51
-166 34 -71 60 -135 57 -143 -3 -9 -41 -32 -84 -52 l-77 -36 41 -120 c54 -159
51 -152 98 -223 l41 -63 58 0 58 0 -5 32 c-2 17 -9 34 -14 37 -5 3 -9 23 -8
44 0 20 -3 38 -9 40 -5 2 -5 6 1 10 6 3 46 -32 89 -78 43 -47 81 -85 86 -85
18 0 -13 75 -48 113 -54 58 -123 151 -123 165 0 7 -4 12 -9 12 -13 0 -22 30
-14 43 4 7 6 19 5 29 -5 28 15 29 70 2 56 -28 105 -76 135 -131 10 -18 21 -33
25 -33 9 0 -18 62 -43 100 -35 54 -151 281 -146 287 4 3 -42 63 -101 133 -125
148 -238 309 -321 455 -58 102 -84 159 -150 325 -44 111 -52 123 -172 271
-140 174 -320 444 -335 503 -3 15 -15 33 -25 39 -11 7 -19 17 -19 24 0 17 -17
16 -23 -1z"/>
<path d="M2160 2023 c0 -4 5 -15 10 -23 8 -13 10 -13 10 2 0 9 -4 20 -10 23
-5 3 -10 3 -10 -2z"/>
<path d="M2194 1948 c-5 -7 -3 -8 6 -3 7 4 16 2 21 -6 7 -11 9 -10 9 4 0 19
-25 23 -36 5z"/>
<path d="M2240 1938 c0 -9 7 -19 16 -22 15 -6 15 -4 3 11 -7 10 -15 20 -16 22
-2 2 -3 -3 -3 -11z"/>
<path d="M6880 1820 c0 -5 4 -10 9 -10 6 0 13 5 16 10 3 6 -1 10 -9 10 -9 0
-16 -4 -16 -10z"/>
<path d="M6950 1700 c0 -5 5 -10 10 -10 6 0 10 5 10 10 0 6 -4 10 -10 10 -5 0
-10 -4 -10 -10z"/>
<path d="M3210 574 c0 -11 60 -113 70 -119 5 -3 19 -26 32 -52 20 -40 44 -64
99 -98 54 -33 166 -119 179 -137 3 -4 35 -26 70 -50 122 -80 131 -81 78 -7
-40 55 -83 93 -258 235 -74 59 -154 128 -178 152 -24 24 -48 40 -54 36 -7 -5
-9 -2 -6 8 4 8 -2 20 -13 26 -10 7 -19 9 -19 6z m190 -187 c0 -8 -3 -8 -9 2
-5 7 -13 11 -18 8 -5 -3 -10 0 -10 8 0 10 5 11 19 4 10 -5 18 -15 18 -22z"/>
<path d="M2700 350 c-21 -7 -21 -8 -5 -9 11 0 27 4 35 9 18 11 5 11 -30 0z"/>
<path d="M6510 100 c0 -5 5 -10 11 -10 5 0 7 5 4 10 -3 6 -8 10 -11 10 -2 0
-4 -4 -4 -10z"/>
</g>
</svg>
